<svg width="766" height="280" viewBox="0 0 766 280" fill="none" xmlns="http://www.w3.org/2000/svg">
<mask id="mask0_1204_3662" style="mask-type:alpha" maskUnits="userSpaceOnUse" x="40" y="40" width="201" height="200">
<circle cx="140.818" cy="140" r="99.5" fill="#D9D9D9" stroke="white"/>
</mask>
<g mask="url(#mask0_1204_3662)">
<path d="M40.9819 30.3333H240.982V230.333H40.9819V30.3333Z" fill="white"/>
<path d="M43.7396 201.93C173.411 190.972 203.186 196.41 199.843 196.5C196.501 196.59 44.2192 212.462 43.7396 214.887V201.93Z" fill="black"/>
<path d="M242.252 200C116.868 208.343 92.9546 211.333 92.9546 211.333C92.9546 211.333 235.815 213.167 237.982 245.667C240.149 278.167 242.252 200 242.252 200Z" fill="black"/>
<path d="M43.3589 59.4407L43.9439 59.4724C45.0094 59.5313 47.8211 59.4519 48.8866 59.335C54.6506 58.7025 59.739 56.6997 64.2593 53.2845C65.381 52.4369 67.6786 50.2796 68.5619 49.2445C71.0509 46.3278 73.2369 41.8701 74.0933 38.371C74.824 35.3851 74.7708 33.0854 74.706 30.2841L74.706 30.2829C74.6949 29.8019 74.6834 29.3057 74.6755 28.789C74.6697 28.4053 74.5792 27.3364 74.5792 27.3364C74.5792 27.3364 74.7454 27.3333 73.9756 27.3333H73.3109L73.3357 27.7659C73.3362 27.815 73.3394 27.9172 73.3434 28.0432C73.3502 28.2623 73.3594 28.5536 73.3605 28.7636C73.3607 28.7867 73.3635 28.8809 73.3679 29.0298L73.3679 29.0312C73.3958 29.9716 73.4879 33.0806 73.3834 34.2363C72.9473 39.0629 71.0495 43.7186 67.95 47.5657C63.832 52.6768 57.9086 56.2114 51.3335 57.4809C49.2187 57.8892 48.2288 57.9762 45.6789 57.9777L43.3589 57.979L43.3589 59.4407Z" fill="black"/>
<path fill-rule="evenodd" clip-rule="evenodd" d="M93.9021 176.691L96.6642 190.837L43.7396 200C121.804 192.178 164.255 190.205 242.252 193L242.625 173.856L232.598 175.068L213.283 177.211L193.968 179.353L199.843 139.485C199.843 139.485 202.482 139.291 205.653 139.105C208.825 138.918 211.429 138.765 211.44 138.764C211.566 138.756 210.861 137.867 207.141 133.344C202.632 127.861 193.612 116.887 188.975 111.243C187.489 109.433 186.241 107.934 186.202 107.912C186.164 107.889 182.795 108.079 178.717 108.333C174.639 108.587 171.273 108.767 171.237 108.734C171.201 108.7 171.162 107.496 171.15 106.056L171.128 103.44H164.358L164.276 109.218L161.716 109.384C160.308 109.475 159.129 109.525 159.096 109.496C159.062 109.467 159.025 107.902 159.013 106.018L158.991 102.593H151.313L151.23 109.988L150.735 110.047C150.463 110.079 145.688 110.385 140.126 110.725C134.563 111.066 123.981 111.718 116.61 112.174L103.208 113.004L88.2287 126.981C79.9903 134.669 73.249 140.998 73.249 141.046C73.249 141.173 74.2976 141.21 81.6705 141.347C85.2352 141.414 88.3095 141.485 88.5023 141.507C88.7777 141.537 88.8617 141.582 88.8938 141.714C88.9163 141.807 89.0674 142.906 89.2294 144.155C89.5921 146.953 90.6128 154.768 90.8344 156.443C90.924 157.121 91.3868 160.657 91.8628 164.301C92.1107 166.199 92.5406 168.623 92.9544 170.957C93.3354 173.106 93.7029 175.178 93.9021 176.691Z" fill="black"/>
<path fill-rule="evenodd" clip-rule="evenodd" d="M93.1946 66.5929C96.9832 70.128 101.8 72.1859 107.213 72.5823C108.996 72.7129 111.415 72.5479 113.375 72.1618C119.118 71.0303 124.319 67.6046 127.441 62.8955C129.716 59.4648 130.856 55.4458 130.702 51.3941C130.583 48.2762 129.914 45.8064 128.417 42.9572C125.519 37.4423 119.866 33.3194 113.424 32.0214C110.504 31.4333 107.054 31.421 104.232 31.9886C100.141 32.8114 96.5032 34.6069 93.5369 37.2675C92.2958 38.3808 91.4064 39.3759 90.4148 40.7609C88.6905 43.1691 87.5176 45.957 87.0237 48.8214C85.8978 55.3512 88.1749 61.909 93.1946 66.5929ZM111.663 70.9567C117.014 70.2242 121.862 67.5197 125.096 63.463C127.101 60.9474 128.337 58.2047 128.919 54.9752C129.131 53.8027 129.131 50.4459 128.92 49.2024C128.367 45.9454 126.879 42.7867 124.676 40.1953C123.566 38.8894 121.651 37.2404 120.106 36.2617C113.419 32.0235 104.339 31.9778 97.5606 36.1484C95.8784 37.1834 94.1274 38.6693 92.8364 40.1575C90.5736 42.766 89.0691 45.9871 88.5069 49.4267C88.3346 50.481 88.3088 53.3681 88.4634 54.3072C88.6591 55.4969 88.821 56.2287 88.9147 56.3484C89.0017 56.4594 89.1136 56.4544 90.2035 56.2914C90.86 56.1932 91.4293 56.1323 91.4687 56.1559C91.5081 56.1796 91.6377 56.5162 91.7568 56.904C93.0267 61.0398 96.37 64.6341 100.943 66.7801C101.874 67.2166 103.718 67.8669 104.943 68.1897C105.583 68.3585 106.122 68.5109 106.14 68.5284C106.159 68.5459 106.061 69.0041 105.923 69.5466C105.785 70.0891 105.672 70.5998 105.672 70.6816C105.672 70.8572 105.751 70.8832 106.604 70.9873C106.961 71.0309 107.363 71.0811 107.496 71.099C107.994 71.1655 110.851 71.0679 111.663 70.9567Z" fill="black"/>
<path fill-rule="evenodd" clip-rule="evenodd" d="M148.462 93.2517C144.509 92.7808 141.193 90.8944 139.037 87.8912C137.695 86.0204 136.999 83.9851 136.91 81.6683C136.857 80.2696 136.953 79.3788 137.289 78.1658C138.876 72.4323 144.82 68.5504 151.091 69.1537C158.803 69.8958 164.103 76.6047 162.551 83.6599C161.669 87.6673 158.465 91.1397 154.339 92.559C152.881 93.0606 151.344 93.3052 149.744 93.2901C149.171 93.2847 148.594 93.2674 148.462 93.2517ZM157.7 88.8569C156.113 90.2794 154.277 91.1906 152.224 91.5737C151.785 91.6555 151.183 91.7455 150.887 91.7737C150.227 91.8362 150.197 91.7956 150.369 91.0795C150.436 90.8021 150.474 90.5506 150.454 90.5207C150.434 90.4907 150.266 90.4302 150.081 90.3861C148.649 90.0458 146.72 89.2971 145.628 88.658C143.135 87.1987 141.229 84.9597 140.394 82.5105L140.143 81.7721L139.441 81.8434C138.857 81.9033 138.648 81.9247 138.56 81.8385C138.511 81.7904 138.5 81.709 138.483 81.582L138.482 81.5723C138.48 81.5586 138.478 81.5443 138.476 81.5295C138.397 80.9665 138.548 79.5351 138.781 78.6516C139.291 76.7128 140.245 75.1379 141.77 73.7158C143.45 72.1491 145.288 71.2184 147.621 70.7521C148.58 70.5604 151.142 70.5604 152.083 70.752C156.191 71.5891 159.447 74.3068 160.704 77.9479C161.133 79.1918 161.269 80.1694 161.214 81.6043C161.147 83.3537 160.873 84.363 160.037 85.9398C159.446 87.0555 158.774 87.8949 157.7 88.8569Z" fill="black"/>
<path d="M48.8153 224.113C62.5809 202.183 205.653 225.333 205.653 225.333C205.653 225.333 187.798 250.075 187.318 252.5C187.318 252.5 35.0497 246.043 48.8153 224.113Z" fill="black"/>
</g>
<circle cx="140.818" cy="140" r="99.5" stroke="white"/>
<path d="M296.26 160.9C297.237 161.138 298.237 161.385 298.481 161.449C299.381 161.686 307.372 161.395 308.707 161.077C310.452 160.66 312.512 159.865 312.931 159.446C313.186 159.191 313.264 158.548 313.264 156.697C313.264 155.287 313.169 154.222 313.037 154.139C312.911 154.062 312.036 154.247 311.091 154.55C307.896 155.576 305.246 156.025 302.371 156.025C294.884 156.027 290.672 151.723 289.717 143.092C289.396 140.192 289.416 138.355 289.8 135.455C290.388 131.015 291.522 128.382 293.825 126.107C294.591 125.35 295.732 124.499 296.397 124.188C300.033 122.488 304.619 122.479 309.763 124.161C310.711 124.471 311.598 124.687 311.734 124.642C312.087 124.524 313.738 120.018 313.594 119.565C313.388 118.913 310.712 118.106 306.68 117.479C303.824 117.035 301.784 117.037 298.952 117.486C292.722 118.475 288.474 121.368 285.715 126.499C283.152 131.268 282.178 138.521 283.244 144.917C283.8 148.255 284.398 150.147 285.661 152.557C287.861 156.756 291.722 159.794 296.26 160.9Z" fill="white"/>
<path d="M373.127 153.646C374.422 158.046 377.123 160.463 381.845 161.446C383.031 161.693 387.668 161.562 389.241 161.237C391.853 160.698 391.737 160.842 391.737 158.112V155.762L390.903 155.91C390.445 155.992 388.709 156.112 387.046 156.177C384.095 156.293 383.995 156.282 382.848 155.701C381.389 154.961 380.52 154.053 379.763 152.476L379.177 151.253L379.113 137.266C379.062 126.056 379.107 123.243 379.336 123.098C379.493 122.998 382.237 122.915 385.433 122.913C390.526 122.91 391.262 122.866 391.38 122.558C391.63 121.907 391.527 118.564 391.248 118.285C391.055 118.092 389.439 118.019 385.375 118.019C382.292 118.019 379.611 117.958 379.417 117.884C379.113 117.767 379.066 117.153 379.066 113.312C379.066 110.679 378.972 108.7 378.836 108.445C378.646 108.09 378.365 108.016 377.224 108.018C376.464 108.02 375.732 108.095 375.598 108.185C375.183 108.462 374.941 109.112 373.841 112.906C373.158 115.264 372.611 116.742 372.31 117.045C372.052 117.304 370.741 117.996 369.396 118.582C368.051 119.168 366.821 119.747 366.663 119.868C366.469 120.018 366.396 120.532 366.44 121.444L366.506 122.798L369.27 122.861C370.791 122.895 372.161 123.028 372.315 123.156C372.534 123.338 372.612 126.569 372.673 137.877C372.741 150.704 372.793 152.511 373.127 153.646Z" fill="white"/>
<path d="M404.928 159.183C406.186 160.177 407.022 160.579 409.077 161.174C410.296 161.526 411.061 161.577 413.967 161.498C417.062 161.413 419.141 161.102 419.95 160.602C420.1 160.509 420.192 159.558 420.192 158.107V155.762L419.358 155.91C418.9 155.992 417.163 156.112 415.498 156.177C412.561 156.293 412.434 156.278 411.221 155.705C409.182 154.74 407.967 152.873 407.526 150.03C407.395 149.186 407.301 143.305 407.3 135.882C407.298 124.503 407.335 123.165 407.65 123.044C407.843 122.97 410.634 122.909 413.851 122.909C418.979 122.909 419.716 122.866 419.835 122.558C420.084 121.907 419.981 118.564 419.703 118.285C419.509 118.092 417.85 118.019 413.634 118.019C409.418 118.019 407.759 117.946 407.565 117.752C407.375 117.562 407.298 116.196 407.298 113.017C407.298 109.838 407.221 108.472 407.032 108.282C406.68 107.93 404.375 107.938 403.895 108.293C403.671 108.459 403.031 110.219 402.305 112.669C401.615 114.999 400.919 116.927 400.693 117.138C400.475 117.342 399.295 117.935 398.073 118.456C394.721 119.884 394.817 119.794 394.895 121.421L394.96 122.798L397.85 122.909L400.74 123.021L400.869 137.026C400.954 146.192 401.087 151.491 401.256 152.365C401.838 155.384 403.111 157.747 404.928 159.183Z" fill="white"/>
<path d="M701.961 161.127C702.939 161.279 703.889 161.439 704.073 161.483C704.256 161.527 706.507 161.528 709.074 161.485C712.77 161.424 714.09 161.319 715.41 160.979C722.131 159.252 725.636 155.23 725.636 149.246C725.636 143.506 722.709 140.446 713.965 137.043C706.306 134.062 704.664 133.276 703.166 131.875C701.225 130.059 700.836 127.479 702.208 125.514C703.428 123.765 707.018 122.462 710.604 122.466C713.13 122.469 716.81 123.208 720.342 124.423C722.636 125.211 722.473 125.308 723.751 122.391C724.393 120.925 724.554 120.338 724.386 120.072C724.144 119.689 721.294 118.658 718.983 118.118C716.718 117.589 713.045 117.13 711.092 117.13C707.721 117.132 702.906 118.19 700.809 119.39C696.766 121.704 694.83 125.519 695.394 130.061C695.842 133.679 698.127 136.378 702.586 138.559C703.954 139.228 706.494 140.327 708.232 141.001C712.196 142.538 715.637 144.215 717.073 145.309C719.358 147.05 720.074 149.767 718.914 152.3C718.11 154.056 716.453 155.19 713.619 155.925C712.454 156.226 711.444 156.277 708.186 156.195C703.752 156.083 701.666 155.668 697.82 154.131C696.766 153.71 695.791 153.365 695.653 153.365C695.481 153.365 695.403 154.231 695.403 156.138C695.403 158.846 695.416 158.921 695.954 159.274C696.82 159.841 700.006 160.824 701.961 161.127Z" fill="white"/>
<path d="M583.635 130.023C583.601 146.468 583.629 160.151 583.696 160.429C583.817 160.93 583.855 160.935 586.869 160.874L589.92 160.812V130.468V100.123H586.808H583.696L583.635 130.023Z" fill="white"/>
<path fill-rule="evenodd" clip-rule="evenodd" d="M337.162 161.455C336.917 161.395 336.067 161.192 335.272 161.006C333.344 160.554 330.607 159.216 328.786 157.834C325.472 155.321 323.044 151.217 321.77 145.976C321.206 143.651 321.204 135.124 321.769 132.638C322.763 128.258 324.43 125.034 327.039 122.445C329.848 119.657 332.891 118.178 337.273 117.472C339.949 117.04 342.026 117.039 344.524 117.469C347.067 117.906 348.331 118.318 350.405 119.384C355.263 121.883 358.553 126.586 359.972 133.058C360.368 134.862 360.452 135.971 360.452 139.36C360.453 145.848 359.518 149.644 356.948 153.587C354.603 157.184 351.378 159.563 347.12 160.837C345.407 161.35 344.696 161.431 341.386 161.494C339.307 161.533 337.406 161.516 337.162 161.455ZM353.939 139.414C353.911 148.652 350.668 154.305 344.469 155.919C342.694 156.382 338.906 156.339 337.04 155.835C332.333 154.564 329.524 151.089 328.244 144.954C327.796 142.81 327.736 136.57 328.141 134.358C329.469 127.102 332.813 123.548 339.102 122.708C343.027 122.184 347.273 123.503 349.722 126.006C352.462 128.808 353.956 133.558 353.939 139.414Z" fill="white"/>
<path fill-rule="evenodd" clip-rule="evenodd" d="M434.753 161.165C432.833 160.682 431.814 160.251 430.577 159.4C427.31 157.153 425.749 153.901 425.749 149.343C425.749 143.512 428.375 139.754 433.949 137.605C437.609 136.193 441.129 135.66 448.091 135.461C451.372 135.368 453.314 135.225 453.511 135.063C453.756 134.862 453.794 134.223 453.697 131.917C453.53 127.964 452.862 126.147 450.963 124.48C449.761 123.424 448.59 122.969 446.304 122.667C444.615 122.443 443.956 122.46 441.978 122.774C439.374 123.188 439.062 123.276 435.753 124.526C433.881 125.233 433.077 125.57 432.568 125.316C432.14 125.102 431.921 124.472 431.454 123.295C430.766 121.563 430.645 121.059 430.858 120.803C431.239 120.344 435.308 118.798 437.531 118.268C442.905 116.987 447.362 116.958 451.759 118.175C454.786 119.013 457.444 121.215 458.657 123.889C459.979 126.804 459.993 127.03 459.93 144.714L459.873 160.812L457.717 160.875C455.836 160.931 455.535 160.888 455.351 160.542C455.173 160.207 454.74 158.294 454.267 155.755C454.098 154.846 453.494 154.99 452.527 156.17C452.065 156.734 450.966 157.769 450.086 158.468C447.266 160.709 444.158 161.601 439.264 161.574C437.226 161.562 435.826 161.436 434.753 161.165ZM452.208 150.235C450.893 152.819 448.845 154.516 445.734 155.599C444.034 156.191 443.608 156.248 440.977 156.241C437.913 156.233 436.841 156.005 435.326 155.038C434.215 154.328 433.633 153.647 433.041 152.362C432.615 151.439 432.53 150.88 432.53 149.03C432.53 147.064 432.599 146.665 433.13 145.584C435.062 141.651 439.452 140.162 449.647 139.982L453.426 139.916L453.488 143.083C453.557 146.619 453.29 148.106 452.208 150.235Z" fill="white"/>
<path fill-rule="evenodd" clip-rule="evenodd" d="M473.886 177.747C476.226 178.991 477.819 179.442 481.547 179.914C485.56 180.423 489.639 180.279 494.292 179.466C500.398 178.399 504.883 175.624 506.835 171.705C507.712 169.946 508.058 168.25 508.063 165.703C508.07 161.812 507.204 159.601 504.841 157.477C501.891 154.824 498.134 154.04 488.328 154.027C485.638 154.024 483.045 153.93 482.565 153.819C481.569 153.588 480.778 153.054 480.116 152.167C478.997 150.668 479.964 147.891 482.194 146.196L483.437 145.251L486.549 145.32C490.201 145.402 492.682 145.037 495.264 144.038C498.229 142.89 501.008 140.435 502.195 137.915C503.262 135.647 503.411 134.893 503.427 131.69C503.445 128.224 503.221 127.234 501.863 124.763C501.449 124.009 501.11 123.332 501.11 123.257C501.11 122.962 502.228 122.73 504.86 122.476C505.003 122.463 505.14 122.449 505.273 122.437C507.326 122.241 508.15 122.162 508.465 121.72C508.677 121.424 508.659 120.964 508.63 120.196C508.628 120.122 508.625 120.046 508.622 119.966L508.557 118.13L500.888 118.003C495.106 117.907 492.726 117.784 491.218 117.503C488.615 117.019 486.604 117.032 483.753 117.551C480.801 118.088 478.744 118.871 476.982 120.128C473.887 122.336 472.368 125.088 471.751 129.6C471.013 135.004 473.182 140.343 477.202 143.011C477.87 143.454 478.47 143.905 478.537 144.014C478.604 144.122 478.034 144.731 477.269 145.367C474.72 147.486 473.835 149.379 474.042 152.267C474.129 153.494 474.291 154.005 474.879 154.922C475.28 155.546 475.944 156.314 476.354 156.627C476.765 156.94 477.101 157.323 477.101 157.478C477.101 157.633 476.576 157.929 475.934 158.136C472.575 159.22 469.747 161.869 468.806 164.813C467.175 169.911 469.294 175.306 473.886 177.747ZM491.643 140.371C493.234 139.868 494.805 138.778 495.596 137.63C497.056 135.508 497.641 132.031 497.033 129.093C496.191 125.023 494.419 123.1 490.69 122.207C485.58 120.984 480.928 122.676 478.99 126.461C477.633 129.112 477.661 133.897 479.05 136.581C480.052 138.517 482.576 140.249 485.055 140.702C486.538 140.972 490.347 140.781 491.643 140.371ZM499.489 171.723C498.098 172.934 495.308 174.192 492.885 174.701C489.872 175.333 482.602 175.325 480.365 174.687C478.311 174.101 477.239 173.521 476.095 172.377C475.101 171.383 474.434 169.786 474.434 168.4C474.434 166.3 477.814 162.623 481.542 160.668L482.962 159.923L488.164 159.856C497.994 159.729 500.871 160.678 501.796 164.354C502.413 166.805 501.392 170.065 499.489 171.723Z" fill="white"/>
<path fill-rule="evenodd" clip-rule="evenodd" d="M532.01 161.452C526.782 160.49 524.283 159.253 521.11 156.056C518.783 153.711 517.657 151.866 516.549 148.582C514.777 143.33 514.96 134.75 516.962 129.229C518.544 124.866 521.908 120.943 525.675 119.067C531.176 116.328 538.862 116.628 543.725 119.771C547.229 122.036 549.684 125.694 550.91 130.478C551.412 132.435 551.796 138.663 551.489 139.884L551.342 140.471L536.952 140.475C528.963 140.477 522.424 140.566 522.251 140.675C522.003 140.832 521.971 141.253 522.093 142.728C522.67 149.675 526.452 154.461 532.344 155.698C536.411 156.552 543.469 155.7 548.185 153.786C549.197 153.375 549.424 153.346 549.59 153.608C549.699 153.78 549.789 154.994 549.791 156.305C549.793 157.668 549.812 158.338 549.505 158.78C549.186 159.238 548.517 159.452 547.114 159.942C543.744 161.12 541.788 161.419 537.012 161.489C534.567 161.525 532.316 161.508 532.01 161.452ZM544.35 131.587C544.751 133.866 544.767 134.739 544.415 135.092C544.214 135.292 541.442 135.358 533.304 135.358H522.46L522.317 134.792C521.786 132.674 524.157 127.298 526.553 125.188C528.825 123.189 532.301 122.215 535.567 122.663C540.376 123.323 543.444 126.44 544.35 131.587Z" fill="white"/>
<path fill-rule="evenodd" clip-rule="evenodd" d="M611.039 161.446C606.107 160.419 603.109 158.086 601.577 154.084C600.977 152.517 600.719 147.924 601.125 146.032C601.428 144.617 602.438 142.553 603.431 141.317C604.392 140.121 606.969 138.435 609.081 137.622C612.775 136.198 616.325 135.662 623.488 135.447C626.055 135.37 628.343 135.208 628.571 135.089C628.951 134.889 628.977 134.636 628.882 132.058C628.742 128.215 628.207 126.608 626.499 124.897C625.478 123.874 624.999 123.579 623.71 123.177C621.619 122.524 619.292 122.394 616.83 122.792C614.623 123.149 611.451 124.106 609.345 125.051C608.399 125.476 607.893 125.595 607.659 125.447C607.24 125.183 605.738 121.429 605.891 121.029C606.151 120.353 610.868 118.56 614.04 117.932C616.706 117.405 619.971 117.111 621.567 117.256C629.426 117.971 633.034 120.485 634.626 126.355C635.022 127.818 635.047 128.901 635.047 144.362V160.812L632.914 160.875C631.374 160.921 630.72 160.859 630.564 160.653C630.36 160.382 629.791 158.014 629.492 156.188C629.266 154.805 628.864 154.916 626.877 156.911C624.232 159.566 621.902 160.798 618.471 161.355C617.103 161.577 611.969 161.64 611.039 161.446ZM627.83 149.191C626.753 152.049 624.097 154.524 620.931 155.621C619.742 156.033 618.915 156.133 616.263 156.187C612.308 156.267 611.264 155.953 609.449 154.139C607.945 152.634 607.499 151.246 607.639 148.496C607.793 145.476 609.063 143.503 611.774 142.076C614.421 140.683 617.703 140.135 624.754 139.909C628.282 139.796 628.478 139.812 628.7 140.227C629.268 141.287 628.733 146.798 627.83 149.191Z" fill="white"/>
<path fill-rule="evenodd" clip-rule="evenodd" d="M664.503 161.245C661.407 160.58 659.245 159.426 656.903 157.188C655.952 156.28 655.044 155.587 654.884 155.648C654.725 155.71 654.357 156.746 654.068 157.952C653.653 159.685 653.525 160.42 653.095 160.718C652.729 160.971 652.147 160.91 650.986 160.875L648.83 160.812L648.774 130.406L648.717 100L651.886 100.062L655.055 100.123L655.059 111.613C655.062 117.933 655.123 123.163 655.195 123.235C655.267 123.307 656.065 122.632 656.969 121.735C659.546 119.176 661.988 118.036 666.114 117.466C668.525 117.133 668.928 117.133 671.338 117.466C675.717 118.071 678.306 119.359 681.099 122.32C683.068 124.408 684.308 126.641 685.251 129.801C687.371 136.901 686.784 146.802 683.899 152.587C682.108 156.18 678.96 159.153 675.488 160.53C672.884 161.563 667.589 161.907 664.503 161.245ZM679.837 139.34C679.822 148.642 676.932 154.321 671.436 155.845C669.648 156.341 665.917 156.372 663.996 155.906C662.043 155.433 660.309 154.49 659.011 153.196C656.39 150.581 655.158 146.161 655.173 139.417C655.196 128.606 658.053 123.939 665.355 122.783C667.406 122.458 667.817 122.455 669.567 122.757C672.462 123.256 673.87 123.867 675.411 125.293C677.042 126.804 678.018 128.429 678.785 130.912C679.531 133.328 679.843 135.824 679.837 139.34Z" fill="white"/>
</svg>
